<?xml version="1.0" encoding="utf-8"?>
<!-- Generator: Adobe Illustrator 19.2.0, SVG Export Plug-In . SVG Version: 6.00 Build 0)  -->
<!DOCTYPE svg PUBLIC "-//W3C//DTD SVG 1.1//EN" "http://www.w3.org/Graphics/SVG/1.1/DTD/svg11.dtd">
<svg version="1.1" id="Layer_1" xmlns="http://www.w3.org/2000/svg" xmlns:xlink="http://www.w3.org/1999/xlink" x="0px" y="0px"
	 viewBox="0 0 94 94" style="enable-background:new 0 0 94 94;" xml:space="preserve">
<style type="text/css">
	.st0{fill:none;stroke:#ED504C;stroke-width:2;stroke-linecap:round;stroke-linejoin:round;stroke-miterlimit:10;}
</style>
<g>
	<g>
		<path class="st0" d="M92,47c0,24.8-20.2,45-45,45l0,0C22.2,92,2,71.8,2,47l0,0C2,22.2,22.2,2,47,2l0,0C71.8,2,92,22.2,92,47L92,47
			z"/>
	</g>
	<g>
		<polygon class="st0" points="26.7,32.1 26.7,63.5 47,66.1 67.3,63.5 67.3,32.1 47,34.7 		"/>
		<line class="st0" x1="47" y1="66.1" x2="47" y2="34.7"/>
		<line class="st0" x1="30.7" y1="38.7" x2="43.1" y2="40"/>
		<line class="st0" x1="30.7" y1="45.2" x2="43.1" y2="46.5"/>
		<line class="st0" x1="30.7" y1="51.7" x2="43.1" y2="53"/>
		<line class="st0" x1="30.7" y1="58.3" x2="43.1" y2="59.6"/>
		<line class="st0" x1="63.3" y1="38.7" x2="50.9" y2="40"/>
		<line class="st0" x1="63.3" y1="45.2" x2="50.9" y2="46.5"/>
		<line class="st0" x1="63.3" y1="51.7" x2="50.9" y2="53"/>
		<line class="st0" x1="63.3" y1="58.3" x2="50.9" y2="59.6"/>
	</g>
</g>
</svg>
