<?xml version="1.0" encoding="utf-8"?>
<!-- Generator: Adobe Illustrator 19.2.0, SVG Export Plug-In . SVG Version: 6.00 Build 0)  -->
<!DOCTYPE svg PUBLIC "-//W3C//DTD SVG 1.1//EN" "http://www.w3.org/Graphics/SVG/1.1/DTD/svg11.dtd">
<svg version="1.1" id="Layer_1" xmlns="http://www.w3.org/2000/svg" xmlns:xlink="http://www.w3.org/1999/xlink" x="0px" y="0px"
	 viewBox="0 0 94 94" style="enable-background:new 0 0 94 94;" xml:space="preserve">
<style type="text/css">
	.st0{fill:none;stroke:#ED504C;stroke-width:2;stroke-linecap:round;stroke-linejoin:round;stroke-miterlimit:10;}
</style>
<g>
	<line class="st0" x1="40" y1="39" x2="62" y2="39"/>
	<line class="st0" x1="40" y1="49" x2="62" y2="49"/>
	<line class="st0" x1="40" y1="59" x2="62" y2="59"/>
	<line class="st0" x1="40" y1="69" x2="62" y2="69"/>
	<line class="st0" x1="36" y1="39" x2="32" y2="39"/>
	<line class="st0" x1="36" y1="49" x2="32" y2="49"/>
	<line class="st0" x1="36" y1="59" x2="32" y2="59"/>
	<line class="st0" x1="36" y1="69" x2="32" y2="69"/>
	<polyline class="st0" points="38,23 25,23 25,78 69,78 69,23 56,23 	"/>
	<polygon class="st0" points="51,20 51,16 43,16 43,20 39,20 37,28 57,28 55,20 	"/>
</g>
</svg>
