<?xml version="1.0" encoding="utf-8"?>
<!-- Generator: Adobe Illustrator 19.1.0, SVG Export Plug-In . SVG Version: 6.00 Build 0)  -->
<!DOCTYPE svg PUBLIC "-//W3C//DTD SVG 1.1//EN" "http://www.w3.org/Graphics/SVG/1.1/DTD/svg11.dtd">
<svg version="1.1" id="Layer_1" xmlns="http://www.w3.org/2000/svg" xmlns:xlink="http://www.w3.org/1999/xlink" x="0px" y="0px"
	 viewBox="-102 104 94 94" style="enable-background:new -102 104 94 94;" xml:space="preserve">
<style type="text/css">
	.st0{fill:#ED504C;}
</style>
<g>
	<g>
		<path class="st0" d="M-55,197c-25.4,0-46-20.6-46-46s20.6-46,46-46s46,20.6,46,46S-29.6,197-55,197z M-55,107
			c-24.3,0-44,19.7-44,44s19.7,44,44,44s44-19.7,44-44S-30.7,107-55,107z"/>
	</g>
	<g>
		<path class="st0" d="M-57.9,172.7c-0.6,0-1-0.4-1-1v-39.5c0-0.6,0.4-1,1-1s1,0.4,1,1v39.5C-56.9,172.3-57.3,172.7-57.9,172.7z"/>
		<path class="st0" d="M-51.2,172.7c-0.6,0-1-0.4-1-1v-39.5c0-0.6,0.4-1,1-1s1,0.4,1,1v39.5C-50.2,172.3-50.6,172.7-51.2,172.7z"/>
		<path class="st0" d="M-54.9,166.7c-6.6,0-10.1-2.1-10.1-6.1c0-0.6,0.4-1,1-1s1,0.4,1,1c0,2.7,2.7,4.1,8.1,4.1
			c3.8,0,6.4-0.7,7.8-2.2c1.4-1.4,1.3-3.2,1.3-4.4c0-0.2,0-0.4,0-0.5c0-0.1-0.2-6.1-9.1-6.1c-8.5,0-9.1-7.2-9.1-8
			c-0.1-0.5-0.3-3.3,1.7-5.6c1.6-1.8,4.1-2.7,7.4-2.7c10,0,10.1,7,10.1,7.1c0,0.6-0.4,1-1,1c-0.5,0-1-0.4-1-1c0-0.2-0.2-5.1-8.1-5.1
			c-2.7,0-4.7,0.7-5.9,2c-1.5,1.7-1.2,4-1.2,4c0,0,0,0.1,0,0.1c0,0.6,0.2,6.1,7.1,6.1c9.1,0,11.1,5.8,11.1,8.1c0,0.1,0,0.3,0,0.4
			c0,1.4,0.1,3.9-1.8,5.9C-47.4,165.8-50.5,166.7-54.9,166.7z"/>
	</g>
</g>
</svg>
