<?xml version="1.0" encoding="utf-8"?>
<!-- Generator: Adobe Illustrator 19.1.0, SVG Export Plug-In . SVG Version: 6.00 Build 0)  -->
<!DOCTYPE svg PUBLIC "-//W3C//DTD SVG 1.1//EN" "http://www.w3.org/Graphics/SVG/1.1/DTD/svg11.dtd">
<svg version="1.1" id="Layer_1" xmlns="http://www.w3.org/2000/svg" xmlns:xlink="http://www.w3.org/1999/xlink" x="0px" y="0px"
	 viewBox="-102 104 94 94" style="enable-background:new -102 104 94 94;" xml:space="preserve">
<style type="text/css">
	.st0{fill:#ED504C;}
</style>
<g>
	<path class="st0" d="M-55,197c-25.4,0-46-20.6-46-46s20.6-46,46-46s46,20.6,46,46S-29.6,197-55,197z M-55,107
		c-24.3,0-44,19.7-44,44s19.7,44,44,44s44-19.7,44-44S-30.7,107-55,107z"/>
</g>
<g>
	<path class="st0" d="M-65.7,160.7h-1.1c-3.6,0-6.6-3-6.6-6.6s3-6.6,6.6-6.6h1.1c0.6,0,1,0.4,1,1v11.2
		C-64.7,160.3-65.1,160.7-65.7,160.7z M-66.8,149.5c-2.5,0-4.6,2.1-4.6,4.6s2.1,4.6,4.6,4.6h0.1L-66.8,149.5L-66.8,149.5z"/>
	<path class="st0" d="M-43.2,160.7h-1.1c-0.6,0-1-0.4-1-1v-11.2c0-0.6,0.4-1,1-1h1.1c3.6,0,6.6,3,6.6,6.6S-39.6,160.7-43.2,160.7z
		 M-43.3,158.7L-43.3,158.7c2.6,0,4.7-2.1,4.7-4.6s-2.1-4.6-4.6-4.6h-0.1V158.7z"/>
	<path class="st0" d="M-65.7,151.2c-0.6,0-1-0.4-1-1v-5.1c0-0.1,0.1-10,11.7-10s11.7,9.9,11.7,10v3.4c0,0.6-0.4,1-1,1s-1-0.4-1-1
		v-3.4c0-0.3-0.2-8-9.7-8c-9.6,0-9.7,7.7-9.7,8v5.1C-64.7,150.8-65.1,151.2-65.7,151.2z"/>
	<path class="st0" d="M-52.8,166.9h-4.4c-0.6,0-1-0.4-1-1v-2.2c0-0.6,0.4-1,1-1h4.4c0.6,0,1,0.4,1,1v0.7l6.5-2.6v-2.1
		c0-0.6,0.4-1,1-1s1,0.4,1,1v2.8c0,0.4-0.2,0.8-0.6,0.9l-8.5,3.4C-52.5,166.9-52.7,166.9-52.8,166.9z M-56.2,164.9h2.4v-0.2h-2.4
		V164.9z"/>
</g>
</svg>
